<svg width="41" height="41" viewBox="0 0 41 41" fill="none" xmlns="http://www.w3.org/2000/svg">
<g clip-path="url(#clip0_1_1152)">
<path d="M4.04331 36.9071L0.12003 14.6328C0.0821474 14.4178 0.0585326 14.2005 0.0493404 13.9824C-0.00896506 11.4571 1.80433 9.27571 4.29779 8.87156L11.8687 7.53552L11.6637 36.9071H4.04331Z" fill="#27A857"/>
<path d="M33.1816 35.9315C33.0503 36.4766 32.6094 36.8925 32.0576 36.9919L9.77626 40.9222C8.37185 41.1674 6.92989 40.7959 5.81876 39.9027C4.70763 39.0095 4.03498 37.681 3.97264 36.2567C3.91696 33.8423 5.57926 31.7266 7.93833 31.2095L14.1802 32.9626H14.1732L8.55333 33.9593C7.92656 34.0695 7.38219 34.4548 7.07 35.0094C6.75781 35.5639 6.71069 36.2292 6.94161 36.8222C7.34144 37.7774 8.35693 38.3205 9.37333 38.1229L26.4025 35.1186L33.1816 35.9315Z" fill="#218D49"/>
<path d="M14.173 32.9626L8.55313 33.9593C7.92636 34.0695 7.38199 34.4548 7.0698 35.0094C6.75761 35.5639 6.71049 36.2292 6.94141 36.8222C7.34124 37.7774 8.35673 38.3205 9.37313 38.1229L26.4023 35.1186L14.173 32.9626Z" fill="white"/>
<path d="M9.06665 23.4485L12.9949 1.17135C13.1355 0.405605 13.8651 -0.105172 14.6328 0.024762L36.7424 3.9233C39.2376 4.32776 41.0523 6.51054 40.9943 9.03769C40.9847 9.25483 40.9611 9.47112 40.9236 9.68521L36.9954 31.9624L9.06665 23.4485Z" fill="#EB763C"/>
<path d="M32.1199 7.40411C32.0784 7.40409 32.037 7.40054 31.9962 7.39351L15.9842 4.57016C15.6229 4.48104 15.3925 4.12702 15.4574 3.76055C15.5223 3.39409 15.8603 3.14071 16.2302 3.18111L32.2415 6.00092C32.6026 6.06418 32.8554 6.393 32.8237 6.75824C32.7921 7.12347 32.4865 7.40391 32.1199 7.40411Z" fill="white"/>
<path d="M28.7211 10.3914C28.6797 10.3914 28.6382 10.3876 28.5974 10.38L18.1552 8.54141C17.7795 8.46522 17.533 8.10346 17.5995 7.72593C17.666 7.3484 18.0213 7.0927 18.4005 7.14953L28.8434 8.98746C29.2067 9.04884 29.4619 9.37885 29.4299 9.74582C29.3979 10.1128 29.0895 10.3937 28.7211 10.3914Z" fill="white"/>
<path d="M30.197 13.5487L15.5748 10.9657C15.1903 10.8978 14.8235 11.1545 14.7555 11.539L13.5255 18.502C13.4576 18.8865 13.7143 19.2533 14.0988 19.3213L28.721 21.9043C29.1055 21.9722 29.4724 21.7155 29.5403 21.331L30.7703 14.368C30.8382 13.9835 30.5815 13.6167 30.197 13.5487Z" fill="#ECF0F1"/>
<path d="M40.9928 9.03418C40.9844 9.25234 40.9607 9.46965 40.9221 9.68452L36.9917 31.9588L31.5416 30.2976L34.7014 12.3849L35.4507 8.15763L36.2141 3.83142L36.7443 3.92332C39.2366 4.32946 41.0489 6.50961 40.9928 9.03418Z" fill="#E75D18"/>
<path d="M32.8141 26.1976L10.7024 22.3026C10.6206 22.2885 10.5379 22.2814 10.4549 22.2814C9.72227 22.2832 9.11241 22.8445 9.04989 23.5745C8.98737 24.3045 9.49291 24.9613 10.2146 25.0878L32.4889 29.011C33.1151 29.1244 33.6578 29.5119 33.9684 30.0674C34.279 30.6229 34.3249 31.2881 34.0936 31.881C33.6959 32.834 32.6819 33.375 31.6689 33.1746L9.47942 29.2655C9.3977 29.2514 9.31493 29.2443 9.23201 29.2443C8.49798 29.2425 7.88466 29.8027 7.8202 30.5339C7.75573 31.2651 8.26157 31.924 8.9846 32.0507L31.266 35.974C32.6694 36.22 34.1107 35.8498 35.2218 34.9579C36.333 34.066 37.0062 32.7389 37.0696 31.3155C37.1251 28.7873 35.31 26.6043 32.8141 26.1976Z" fill="#B94A13"/>
<path d="M34.0936 31.881C33.696 32.8341 32.682 33.375 31.669 33.1747L9.47949 29.2655L10.2147 25.0878L32.489 29.011C33.1152 29.1244 33.6579 29.5119 33.9685 30.0674C34.2791 30.6229 34.325 31.2882 34.0936 31.881Z" fill="white"/>
</g>
<defs>
<clipPath id="clip0_1_1152">
<rect width="41" height="41" fill="white"/>
</clipPath>
</defs>
</svg>
