<svg width="118" height="108" viewBox="0 0 118 108" fill="none" xmlns="http://www.w3.org/2000/svg">
<g clip-path="url(#clip0_1_562)">
<path d="M98.2227 6.39669C98.3913 5.56822 98.2452 4.69466 97.9022 3.91691C97.5649 3.15607 97.0309 2.47413 96.3169 2.05708C95.558 1.61184 94.6135 1.50476 93.7703 1.75274C93.27 1.90491 92.809 2.18106 92.4323 2.54739C92.3311 2.08525 92.1287 1.64002 91.8364 1.26242C91.3023 0.563572 90.4703 0.101431 89.5933 0.0168933C88.7726 -0.0620088 87.9349 0.180333 87.221 0.597387C86.4902 1.02571 85.8661 1.65129 85.5176 2.41777C85.0791 3.3815 84.9217 4.54249 85.1634 5.57385C85.4164 6.66157 86.0629 7.6873 86.7993 8.53268C88.0305 9.95292 89.6777 11.762 89.6777 11.762C89.6777 11.762 91.7914 11.035 93.6185 10.6067C94.7035 10.3531 95.8278 9.90219 96.6711 9.1639C97.4694 8.47069 98.0147 7.43369 98.2227 6.39669Z" fill="#EB763C"/>
<path d="M85.9787 21.3994C85.8438 21.0161 85.574 20.6949 85.2479 20.4582C84.9275 20.2271 84.5396 20.0749 84.1461 20.0806C83.73 20.0806 83.314 20.2665 83.0273 20.5709C82.8587 20.7512 82.735 20.9767 82.6732 21.219C82.5214 21.0556 82.3302 20.9203 82.1222 20.8358C81.7343 20.678 81.279 20.6892 80.9023 20.8696C80.5425 21.0387 80.2614 21.3374 80.0703 21.6812C79.8735 22.0306 79.7667 22.442 79.8117 22.8421C79.8679 23.3437 80.0816 23.8566 80.4301 24.2229C80.7955 24.6062 81.3127 24.871 81.813 25.0401C82.6619 25.3219 83.775 25.6657 83.775 25.6657C83.775 25.6657 84.4665 24.8541 85.113 24.2342C85.4953 23.8679 85.8494 23.4057 86.0181 22.9041C86.1699 22.4364 86.1474 21.8784 85.9787 21.3994Z" fill="#EB763C"/>
<path d="M6.25135 104.624C6.3413 104.23 6.27946 103.813 6.12768 103.441C5.97589 103.074 5.72853 102.742 5.39685 102.539C5.04268 102.319 4.59295 102.257 4.18818 102.364C3.94645 102.432 3.7272 102.556 3.54168 102.725C3.49671 102.505 3.40676 102.291 3.27184 102.105C3.02448 101.767 2.63658 101.536 2.22058 101.485C1.82706 101.434 1.42791 101.541 1.08499 101.733C0.73082 101.93 0.427247 102.218 0.252973 102.578C0.0337259 103.035 -0.0562217 103.581 0.0449694 104.077C0.151782 104.602 0.449734 105.098 0.787037 105.503C1.36045 106.197 2.11939 107.076 2.11939 107.076C2.11939 107.076 3.13692 106.754 4.00829 106.574C4.53111 106.467 5.07079 106.264 5.47556 105.92C5.86908 105.605 6.13892 105.12 6.25135 104.624Z" fill="#EB763C"/>
<path d="M117.916 105.317C117.831 105.081 117.663 104.872 117.455 104.726C117.252 104.579 117.011 104.489 116.763 104.489C116.499 104.489 116.24 104.607 116.06 104.799C115.954 104.912 115.875 105.058 115.836 105.205C115.74 105.103 115.622 105.019 115.487 104.962C115.245 104.866 114.959 104.872 114.722 104.985C114.498 105.092 114.318 105.278 114.2 105.498C114.076 105.717 114.009 105.977 114.037 106.23C114.07 106.546 114.205 106.867 114.425 107.098C114.655 107.341 114.975 107.504 115.296 107.611C115.83 107.791 116.527 108.006 116.527 108.006C116.527 108.006 116.96 107.498 117.37 107.104C117.612 106.873 117.831 106.585 117.938 106.264C118.034 105.965 118.017 105.616 117.916 105.317Z" fill="#EB763C"/>
<path d="M12.4354 86.3865C12.351 86.1498 12.1824 85.9412 11.9744 85.7947C11.772 85.6482 11.5303 85.5524 11.2829 85.558C11.0187 85.558 10.7601 85.6764 10.5802 85.868C10.4734 85.9807 10.3947 86.1272 10.3553 86.2738C10.2597 86.1723 10.1417 86.0878 10.0068 86.0314C9.76504 85.9356 9.47833 85.9412 9.24222 86.054C9.01735 86.161 8.83745 86.347 8.7194 86.5668C8.59572 86.7866 8.52826 87.0459 8.55637 87.2995C8.5901 87.6151 8.72502 87.9363 8.94426 88.1674C9.17475 88.4098 9.49519 88.5732 9.81563 88.6803C10.3497 88.8606 11.0468 89.0748 11.0468 89.0748C11.0468 89.0748 11.4797 88.5676 11.89 88.173C12.1318 87.942 12.351 87.6546 12.4578 87.3333C12.559 87.0346 12.5422 86.6852 12.4354 86.3865Z" fill="#EB763C"/>
<path d="M110.99 15.431C110.905 15.1943 110.737 14.9857 110.529 14.8392C110.326 14.6927 110.085 14.5969 109.837 14.6025C109.573 14.6025 109.315 14.7209 109.135 14.9125C109.028 15.0252 108.949 15.1717 108.91 15.3183C108.814 15.2168 108.696 15.1323 108.561 15.0759C108.319 14.9801 108.033 14.9857 107.797 15.0985C107.572 15.2055 107.392 15.3915 107.274 15.6113C107.15 15.8311 107.083 16.0904 107.111 16.344C107.145 16.6596 107.279 16.9808 107.499 17.2119C107.729 17.4542 108.05 17.6177 108.37 17.7248C108.904 17.9051 109.601 18.1193 109.601 18.1193C109.601 18.1193 110.034 17.612 110.444 17.2232C110.686 16.9921 110.905 16.7047 111.012 16.3834C111.108 16.0791 111.091 15.7297 110.99 15.431Z" fill="#EB763C"/>
<path d="M109.871 91.9491C109.933 91.2164 109.719 90.4781 109.343 89.8413C108.977 89.2213 108.449 88.6859 107.785 88.3985C107.083 88.0941 106.262 88.0941 105.559 88.3928C105.143 88.5732 104.772 88.8606 104.485 89.21C104.35 88.8212 104.131 88.4548 103.844 88.1618C103.31 87.6151 102.546 87.2995 101.781 87.3164C101.062 87.3277 100.365 87.6207 99.7912 88.0547C99.2066 88.4999 98.7287 89.0973 98.5038 89.8018C98.2228 90.681 98.2003 91.6955 98.5151 92.5634C98.8411 93.4764 99.5045 94.2992 100.224 94.953C101.433 96.052 103.029 97.4497 103.029 97.4497C103.029 97.4497 104.783 96.6099 106.318 96.052C107.229 95.7194 108.156 95.2179 108.808 94.4965C109.427 93.8202 109.798 92.8677 109.871 91.9491Z" fill="#EB763C"/>
</g>
<defs>
<clipPath id="clip0_1_562">
<rect width="118" height="108" fill="white"/>
</clipPath>
</defs>
</svg>
