<svg width="260" height="84" viewBox="0 0 260 84" fill="none" xmlns="http://www.w3.org/2000/svg">
<g clip-path="url(#clip0_1_24)">
<path d="M1.60034 35.2471C0.715942 35.2471 0 35.9631 0 36.8466V44.8464C0 45.7308 0.715942 46.4468 1.60034 46.4468C2.48383 46.4468 3.19977 45.7308 3.19977 44.8464V36.8466C3.19977 35.9631 2.48383 35.2471 1.60034 35.2471Z" fill="#DCFADF"/>
<path d="M9.60574 28.6956C8.72226 28.6956 8.0054 29.4125 8.0054 30.296V52.4481C8.0054 53.3325 8.72226 54.0484 9.60574 54.0484C10.4892 54.0484 11.2061 53.3325 11.2061 52.4481V30.296C11.2061 29.4125 10.4892 28.6956 9.60574 28.6956Z" fill="#DCFADF"/>
<path d="M17.6002 17.6471C16.7167 17.6471 15.9998 18.363 15.9998 19.2465V64.0469C15.9998 64.9304 16.7167 65.6472 17.6002 65.6472C18.4836 65.6472 19.2005 64.9304 19.2005 64.0469V19.2465C19.2005 18.363 18.4836 17.6471 17.6002 17.6471Z" fill="#DCFADF"/>
<path d="M25.6001 25.647C24.7166 25.647 23.9997 26.3629 23.9997 27.2473V54.4467C23.9997 55.3302 24.7166 56.0471 25.6001 56.0471C26.4835 56.0471 27.2004 55.3302 27.2004 54.4467V27.2473C27.2004 26.3629 26.4835 25.647 25.6001 25.647Z" fill="#DCFADF"/>
<path d="M49.7561 21.7734C48.8726 21.7734 48.1566 22.4893 48.1566 23.3737V59.3713C48.1566 60.2548 48.8726 60.9707 49.7561 60.9707C50.6396 60.9707 51.3564 60.2548 51.3564 59.3713V23.3737C51.3564 22.4893 50.6396 21.7734 49.7561 21.7734Z" fill="#DCFADF"/>
<path d="M65.6002 24.0466C64.7167 24.0466 63.9998 24.7634 63.9998 25.6469V57.6464C63.9998 58.5308 64.7167 59.2467 65.6002 59.2467C66.4836 59.2467 67.1996 58.5308 67.1996 57.6464V25.6469C67.1996 24.7634 66.4836 24.0466 65.6002 24.0466Z" fill="#DCFADF"/>
<path d="M73.6001 32.0465C72.7166 32.0465 71.9998 32.7633 71.9998 33.6468V49.6466C71.9998 50.53 72.7166 51.2469 73.6001 51.2469C74.4836 51.2469 75.1995 50.53 75.1995 49.6466V33.6468C75.1995 32.7633 74.4836 32.0465 73.6001 32.0465Z" fill="#DCFADF"/>
<path d="M57.6005 11.2466C56.7161 11.2466 56.0002 11.9635 56.0002 12.847V70.4464C56.0002 71.3308 56.7161 72.0468 57.6005 72.0468C58.484 72.0468 59.1999 71.3308 59.1999 70.4464V12.847C59.1999 11.9635 58.484 11.2466 57.6005 11.2466Z" fill="#DCFADF"/>
<path d="M33.5999 36.8466C32.7164 36.8466 32.0004 37.5634 32.0004 38.4469V44.8464C32.0004 45.7308 32.7164 46.4468 33.5999 46.4468C34.4833 46.4468 35.2002 45.7308 35.2002 44.8464V38.4469C35.2002 37.5634 34.4833 36.8466 33.5999 36.8466Z" fill="#DCFADF"/>
<path d="M81.6 36.311C80.7165 36.311 79.9997 37.027 79.9997 37.9105V44.8337C79.9997 45.7172 80.7165 46.434 81.6 46.434C82.4835 46.434 83.2003 45.7172 83.2003 44.8337V37.9105C83.2003 37.027 82.4835 36.311 81.6 36.311Z" fill="#DCFADF"/>
<path d="M41.4496 33.2605C40.5652 33.2605 39.8493 33.9764 39.8493 34.8599V47.8842C39.8493 48.7677 40.5652 49.4845 41.4496 49.4845C42.3331 49.4845 43.049 48.7677 43.049 47.8842V34.8599C43.049 33.9764 42.3331 33.2605 41.4496 33.2605Z" fill="#DCFADF"/>
</g>
<g clip-path="url(#clip1_1_24)">
<path d="M170 35.2472C170.884 35.2472 171.6 35.9631 171.6 36.8466V44.8465C171.6 45.7309 170.884 46.4468 170 46.4468C169.116 46.4468 168.4 45.7309 168.4 44.8465V36.8466C168.4 35.9631 169.116 35.2472 170 35.2472Z" fill="#DCFADF"/>
<path d="M161.994 28.6957C162.878 28.6957 163.595 29.4125 163.595 30.296V52.4481C163.595 53.3325 162.878 54.0485 161.994 54.0485C161.111 54.0485 160.394 53.3325 160.394 52.4481V30.296C160.394 29.4125 161.111 28.6957 161.994 28.6957Z" fill="#DCFADF"/>
<path d="M154 17.6471C154.883 17.6471 155.6 18.3631 155.6 19.2465V64.0469C155.6 64.9304 154.883 65.6473 154 65.6473C153.116 65.6473 152.399 64.9304 152.399 64.0469V19.2465C152.399 18.3631 153.116 17.6471 154 17.6471Z" fill="#DCFADF"/>
<path d="M146 25.647C146.883 25.647 147.6 26.363 147.6 27.2474V54.4468C147.6 55.3303 146.883 56.0471 146 56.0471C145.116 56.0471 144.4 55.3303 144.4 54.4468V27.2474C144.4 26.363 145.116 25.647 146 25.647Z" fill="#DCFADF"/>
<path d="M121.844 21.7734C122.727 21.7734 123.443 22.4894 123.443 23.3738V59.3714C123.443 60.2549 122.727 60.9708 121.844 60.9708C120.96 60.9708 120.244 60.2549 120.244 59.3714V23.3738C120.244 22.4894 120.96 21.7734 121.844 21.7734Z" fill="#DCFADF"/>
<path d="M106 24.0466C106.883 24.0466 107.6 24.7635 107.6 25.647V57.6465C107.6 58.5309 106.883 59.2468 106 59.2468C105.116 59.2468 104.4 58.5309 104.4 57.6465V25.647C104.4 24.7635 105.116 24.0466 106 24.0466Z" fill="#DCFADF"/>
<path d="M97.9999 32.0465C98.8834 32.0465 99.6002 32.7634 99.6002 33.6469V49.6466C99.6002 50.5301 98.8834 51.247 97.9999 51.247C97.1164 51.247 96.4005 50.5301 96.4005 49.6466V33.6469C96.4005 32.7634 97.1164 32.0465 97.9999 32.0465Z" fill="#DCFADF"/>
<path d="M114 11.2467C114.884 11.2467 115.6 11.9635 115.6 12.847V70.4465C115.6 71.3309 114.884 72.0468 114 72.0468C113.116 72.0468 112.4 71.3309 112.4 70.4465V12.847C112.4 11.9635 113.116 11.2467 114 11.2467Z" fill="#DCFADF"/>
<path d="M138 36.8466C138.884 36.8466 139.6 37.5635 139.6 38.447V44.8465C139.6 45.7309 138.884 46.4468 138 46.4468C137.117 46.4468 136.4 45.7309 136.4 44.8465V38.447C136.4 37.5635 137.117 36.8466 138 36.8466Z" fill="#DCFADF"/>
<path d="M90 36.3111C90.8835 36.3111 91.6003 37.027 91.6003 37.9105V44.8338C91.6003 45.7172 90.8835 46.4341 90 46.4341C89.1165 46.4341 88.3997 45.7172 88.3997 44.8338V37.9105C88.3997 37.027 89.1165 36.3111 90 36.3111Z" fill="#DCFADF"/>
<path d="M130.15 33.2605C131.035 33.2605 131.751 33.9765 131.751 34.8599V47.8842C131.751 48.7677 131.035 49.4846 130.15 49.4846C129.267 49.4846 128.551 48.7677 128.551 47.8842V34.8599C128.551 33.9765 129.267 33.2605 130.15 33.2605Z" fill="#DCFADF"/>
</g>
<g clip-path="url(#clip2_1_24)">
<path d="M258.4 35.2472C259.284 35.2472 260 35.9631 260 36.8466V44.8465C260 45.7309 259.284 46.4468 258.4 46.4468C257.516 46.4468 256.8 45.7309 256.8 44.8465V36.8466C256.8 35.9631 257.516 35.2472 258.4 35.2472Z" fill="#DCFADF"/>
<path d="M250.394 28.6957C251.278 28.6957 251.995 29.4125 251.995 30.296V52.4481C251.995 53.3325 251.278 54.0485 250.394 54.0485C249.511 54.0485 248.794 53.3325 248.794 52.4481V30.296C248.794 29.4125 249.511 28.6957 250.394 28.6957Z" fill="#DCFADF"/>
<path d="M242.4 17.6471C243.283 17.6471 244 18.3631 244 19.2465V64.0469C244 64.9304 243.283 65.6473 242.4 65.6473C241.516 65.6473 240.8 64.9304 240.8 64.0469V19.2465C240.8 18.3631 241.516 17.6471 242.4 17.6471Z" fill="#DCFADF"/>
<path d="M234.4 25.647C235.283 25.647 236 26.363 236 27.2474V54.4468C236 55.3303 235.283 56.0471 234.4 56.0471C233.516 56.0471 232.8 55.3303 232.8 54.4468V27.2474C232.8 26.363 233.516 25.647 234.4 25.647Z" fill="#DCFADF"/>
<path d="M210.244 21.7734C211.127 21.7734 211.843 22.4894 211.843 23.3738V59.3714C211.843 60.2549 211.127 60.9708 210.244 60.9708C209.36 60.9708 208.644 60.2549 208.644 59.3714V23.3738C208.644 22.4894 209.36 21.7734 210.244 21.7734Z" fill="#DCFADF"/>
<path d="M194.4 24.0466C195.283 24.0466 196 24.7635 196 25.647V57.6465C196 58.5309 195.283 59.2468 194.4 59.2468C193.516 59.2468 192.8 58.5309 192.8 57.6465V25.647C192.8 24.7635 193.516 24.0466 194.4 24.0466Z" fill="#DCFADF"/>
<path d="M186.4 32.0465C187.283 32.0465 188 32.7634 188 33.6469V49.6466C188 50.5301 187.283 51.247 186.4 51.247C185.516 51.247 184.8 50.5301 184.8 49.6466V33.6469C184.8 32.7634 185.516 32.0465 186.4 32.0465Z" fill="#DCFADF"/>
<path d="M202.4 11.2467C203.284 11.2467 204 11.9635 204 12.847V70.4465C204 71.3309 203.284 72.0468 202.4 72.0468C201.516 72.0468 200.8 71.3309 200.8 70.4465V12.847C200.8 11.9635 201.516 11.2467 202.4 11.2467Z" fill="#DCFADF"/>
<path d="M226.4 36.8466C227.284 36.8466 228 37.5635 228 38.447V44.8465C228 45.7309 227.284 46.4468 226.4 46.4468C225.517 46.4468 224.8 45.7309 224.8 44.8465V38.447C224.8 37.5635 225.517 36.8466 226.4 36.8466Z" fill="#DCFADF"/>
<path d="M178.4 36.3111C179.284 36.3111 180 37.027 180 37.9105V44.8338C180 45.7172 179.284 46.4341 178.4 46.4341C177.517 46.4341 176.8 45.7172 176.8 44.8338V37.9105C176.8 37.027 177.517 36.3111 178.4 36.3111Z" fill="#DCFADF"/>
<path d="M218.55 33.2605C219.435 33.2605 220.151 33.9765 220.151 34.8599V47.8842C220.151 48.7677 219.435 49.4846 218.55 49.4846C217.667 49.4846 216.951 48.7677 216.951 47.8842V34.8599C216.951 33.9765 217.667 33.2605 218.55 33.2605Z" fill="#DCFADF"/>
</g>
<defs>
<clipPath id="clip0_1_24">
<rect width="83.2" height="83.2" fill="white"/>
</clipPath>
<clipPath id="clip1_1_24">
<rect width="83.2" height="83.2" fill="white" transform="matrix(-1 0 0 1 171.6 6.10352e-05)"/>
</clipPath>
<clipPath id="clip2_1_24">
<rect width="83.2" height="83.2" fill="white" transform="matrix(-1 0 0 1 260 6.10352e-05)"/>
</clipPath>
</defs>
</svg>
