<svg width="101" height="41" viewBox="0 0 101 41" fill="none" xmlns="http://www.w3.org/2000/svg">
<g clip-path="url(#clip0_1_1256)">
<path d="M26.4597 9.5891C26.4597 9.5883 26.4597 9.58739 26.4597 9.58658C26.4597 9.30284 26.349 9.03597 26.148 8.83445C25.9448 8.63072 25.6742 8.51849 25.3861 8.51849L9.28858 8.51849C8.69827 8.51849 8.21685 9.00062 8.21534 9.59335C8.20938 12.0921 7.68857 16.2786 4.66623 19.1667L21.5128 19.1667C21.7129 19.1667 21.9008 19.1156 22.0564 19.0191C25.8738 16.6487 26.4538 12.0936 26.4597 9.5891Z" fill="#27A857"/>
<path d="M9.28861 31.4816L25.3862 31.4816C25.6743 31.4816 25.9449 31.3694 26.1482 31.1657C26.3492 30.9641 26.4598 30.6971 26.4598 30.4136C26.4598 30.4127 26.4598 30.4118 26.4598 30.411C26.4538 27.9067 25.8738 23.3515 22.0564 20.981C21.9009 20.8845 21.7129 20.8335 21.5128 20.8335L4.66638 20.8335C7.68871 23.7216 8.20952 27.9081 8.21548 30.4069C8.21699 30.9995 8.69841 31.4816 9.28861 31.4816Z" fill="#27A857"/>
<path d="M22.7473 33.9267L22.7473 33.1483L9.28853 33.1483C7.78135 33.1483 6.55236 31.9203 6.54862 30.4108C6.54357 28.2913 6.12913 24.7965 3.7866 22.3215C4.83468 26.6021 4.15336 31.1146 3.5673 33.6864C3.49417 34.0075 3.56972 34.3393 3.77478 34.5966C3.97932 34.8529 4.28508 35 4.61326 35L21.6739 35C22.2657 35.0001 22.7473 34.5185 22.7473 33.9267Z" fill="#27A857"/>
<path d="M9.28852 6.85172L22.7473 6.85172L22.7473 6.07334C22.7473 5.48162 22.2657 5 21.6739 5L4.61356 5C4.28527 5 3.97962 5.14707 3.77507 5.40343C3.57012 5.66051 3.49426 5.99202 3.5676 6.31364C4.15376 8.88536 4.83497 13.398 3.78689 17.6784C6.12932 15.2035 6.54367 11.7087 6.54872 9.58921C6.55235 8.07981 7.78135 6.85172 9.28852 6.85172Z" fill="#27A857"/>
</g>
<path d="M41.82 30.27C39.72 30.27 37.89 29.83 36.33 28.95C34.79 28.05 33.6 26.79 32.76 25.17C31.92 23.53 31.5 21.61 31.5 19.41C31.5 17.21 31.92 15.3 32.76 13.68C33.6 12.04 34.79 10.78 36.33 9.9C37.89 9.02 39.72 8.58 41.82 8.58C43.92 8.58 45.74 9.02 47.28 9.9C48.84 10.78 50.04 12.04 50.88 13.68C51.72 15.3 52.14 17.21 52.14 19.41C52.14 21.61 51.72 23.53 50.88 25.17C50.04 26.79 48.84 28.05 47.28 28.95C45.74 29.83 43.92 30.27 41.82 30.27ZM41.82 26.64C43.58 26.64 44.96 26.02 45.96 24.78C46.98 23.54 47.49 21.75 47.49 19.41C47.49 17.07 46.99 15.29 45.99 14.07C44.99 12.83 43.6 12.21 41.82 12.21C40.04 12.21 38.65 12.83 37.65 14.07C36.67 15.29 36.18 17.07 36.18 19.41C36.18 21.75 36.68 23.54 37.68 24.78C38.68 26.02 40.06 26.64 41.82 26.64ZM66.9333 30.27C64.8333 30.27 63.0033 29.83 61.4433 28.95C59.9033 28.05 58.7133 26.79 57.8733 25.17C57.0333 23.53 56.6133 21.61 56.6133 19.41C56.6133 17.21 57.0333 15.3 57.8733 13.68C58.7133 12.04 59.9033 10.78 61.4433 9.9C63.0033 9.02 64.8333 8.58 66.9333 8.58C69.0333 8.58 70.8533 9.02 72.3933 9.9C73.9533 10.78 75.1533 12.04 75.9933 13.68C76.8333 15.3 77.2533 17.21 77.2533 19.41C77.2533 21.61 76.8333 23.53 75.9933 25.17C75.1533 26.79 73.9533 28.05 72.3933 28.95C70.8533 29.83 69.0333 30.27 66.9333 30.27ZM66.9333 26.64C68.6933 26.64 70.0733 26.02 71.0733 24.78C72.0933 23.54 72.6033 21.75 72.6033 19.41C72.6033 17.07 72.1033 15.29 71.1033 14.07C70.1033 12.83 68.7133 12.21 66.9333 12.21C65.1533 12.21 63.7633 12.83 62.7633 14.07C61.7833 15.29 61.2933 17.07 61.2933 19.41C61.2933 21.75 61.7933 23.54 62.7933 24.78C63.7933 26.02 65.1733 26.64 66.9333 26.64ZM99.4566 26.49C99.9166 26.95 100.147 27.45 100.147 27.99C100.147 28.55 99.9266 29.04 99.4866 29.46C99.0666 29.88 98.5766 30.09 98.0166 30.09C97.3766 30.09 96.8066 29.83 96.3066 29.31L87.0066 20.22V27.84C87.0066 28.56 86.7966 29.13 86.3766 29.55C85.9566 29.97 85.3866 30.18 84.6666 30.18C83.9466 30.18 83.3766 29.97 82.9566 29.55C82.5366 29.13 82.3266 28.56 82.3266 27.84V11.01C82.3266 10.31 82.5366 9.75 82.9566 9.33C83.3766 8.91 83.9466 8.7 84.6666 8.7C85.3866 8.7 85.9566 8.91 86.3766 9.33C86.7966 9.75 87.0066 10.31 87.0066 11.01V18.18L96.0666 9.39C96.5066 8.95 97.0066 8.73 97.5666 8.73C98.1266 8.73 98.6166 8.94 99.0366 9.36C99.4566 9.76 99.6666 10.24 99.6666 10.8C99.6666 11.38 99.4266 11.9 98.9466 12.36L91.8066 19.05L99.4566 26.49Z" fill="#27A857"/>
<defs>
<clipPath id="clip0_1_1256">
<rect width="30" height="30" fill="white" transform="translate(30 5) rotate(90)"/>
</clipPath>
</defs>
</svg>
