<svg width="107" height="180" viewBox="0 0 107 180" fill="none" xmlns="http://www.w3.org/2000/svg">
<path d="M36.1887 73.7025L49.763 71.6856L43.2754 62.4771L39.7941 62.6825C37.4517 62.8231 35.3899 64.2723 34.4615 66.4298C33.9704 67.5761 33.83 68.8468 34.0675 70.0688L36.1887 73.7025Z" fill="#EB763C"/>
<path opacity="0.4" d="M36.1887 73.7025L49.763 71.6856L43.2754 62.4771L39.7941 62.6825C37.4517 62.8231 35.3899 64.2723 34.4615 66.4298C33.9704 67.5761 33.83 68.8468 34.0675 70.0688L36.1887 73.7025Z" fill="black"/>
<path d="M94.4908 88.7725C94.6312 89.1618 94.7823 89.6214 94.9388 90.173C95.0737 90.6488 95.1169 91.1409 95.0845 91.6275C95.0468 92.2223 94.9604 93.0118 94.7769 93.4281C94.5556 93.9418 95.0737 94.4609 95.5109 94.2068C95.9481 93.9472 96.6012 92.5413 96.558 90.7353C96.5202 88.9239 98.3607 91.0922 99.0462 91.8708C99.7317 92.6495 101.966 94.9584 102.371 94.9367C102.965 94.9043 103.04 94.2608 102.339 93.4984C101.626 92.7252 99.6885 90.3027 100.115 89.9621C100.536 89.6268 103.974 93.6336 103.974 93.6336C103.974 93.6336 104.568 94.6123 105.075 94.2284C105.993 93.5417 102.026 89.5511 101.637 89.178C101.367 88.9185 101.82 88.5291 102.096 88.8211C102.376 89.1239 105.431 92.9036 106.37 92.2115C107.088 91.6816 103.137 88.8968 102.938 87.7613C102.738 86.6258 105.723 90.1784 106.387 89.6484C106.635 89.4484 106.791 89.2699 104.789 87.4747C103.817 86.6042 100.115 84.0087 100.115 84.0087L88.9747 52.0518L80.3713 56.9887L94.4908 88.7725Z" fill="#FFBE9D"/>
<path d="M28.1734 28.3411L15.7271 13.4603C15.5652 12.9467 15.3708 12.4492 15.1172 11.9788C14.4965 10.8162 13.4656 9.80505 12.181 9.52387C11.393 9.35084 10.4862 9.43195 9.87093 8.91285C9.59567 8.68034 9.40676 8.3505 9.1207 8.13421C8.82924 7.91792 8.34888 7.87466 8.15997 8.18828C8.03043 8.40998 8.11139 8.69116 8.21394 8.92908C8.67812 10.0267 9.42835 11.0001 10.3729 11.7246C9.20706 12.0815 7.53927 12.6168 7.53927 12.6168C7.53927 12.6168 4.90536 9.75638 3.56142 9.7672C2.21208 9.77801 4.65168 12.3194 4.65168 12.3194C4.65168 12.3194 2.49274 10.3187 1.82347 10.8865C1.15419 11.4489 2.87055 12.9304 2.87055 12.9304C2.32542 12.6384 1.73171 12.3356 1.12181 12.4384C0.511907 12.5411 -0.0116367 13.2603 0.317602 13.7848C0.441742 13.9849 0.657636 14.1092 0.868133 14.2228C1.97459 14.8392 3.07565 15.4556 4.18211 16.0721C4.73804 16.3803 5.32096 16.6993 5.95245 16.7209C7.63103 16.775 8.9102 15.7314 10.5942 15.7747C10.5942 15.7747 19.9802 35.5706 20.9301 36.5926C21.8801 37.6145 42.5034 39.0042 42.5034 39.0042L54.437 28.7034L28.1734 28.3411Z" fill="#FFBE9D"/>
<path d="M65.5607 136.178L78.2715 141.726L71.4654 157.607C69.9919 156.861 70.4723 147.338 70.4723 147.338L62.1819 144.121L65.5607 136.178Z" fill="#EB763C"/>
<g opacity="0.6">
<path opacity="0.6" d="M71.8915 142.126C72.1074 141.855 72.5445 141.791 72.8198 141.996C73.1005 142.202 73.1706 142.645 72.9547 142.921C72.7442 143.196 72.2207 143.288 71.967 143.056C71.7133 142.823 71.6594 142.293 71.9292 142.077" fill="white"/>
</g>
<path opacity="0.6" d="M78.2766 141.72L76.9759 141.212L70.9362 156.628C70.9362 156.628 70.9416 157.466 71.4706 157.601L78.2766 141.72Z" fill="white"/>
<path d="M70.2832 147.555C70.3641 147.587 70.5638 147.214 70.974 146.938C71.3788 146.652 71.7998 146.603 71.7998 146.517C71.816 146.441 71.3033 146.354 70.8121 146.695C70.3155 147.036 70.2076 147.544 70.2832 147.555Z" fill="#263238"/>
<path d="M70.2562 149.518C70.321 149.566 70.6017 149.29 71.0389 149.166C71.4761 149.031 71.8593 149.117 71.8863 149.036C71.9294 148.966 71.4976 148.717 70.9525 148.885C70.4128 149.042 70.1861 149.485 70.2562 149.518Z" fill="#263238"/>
<path d="M71.843 151.318C71.8916 151.253 71.5516 150.983 71.0388 150.999C70.5315 151.01 70.2076 151.307 70.2562 151.367C70.2994 151.437 70.6286 151.302 71.0496 151.291C71.4652 151.275 71.7999 151.394 71.843 151.318Z" fill="#263238"/>
<path d="M68.4752 146.614C68.5615 146.614 68.6047 146.208 68.8206 145.787C69.0311 145.354 69.3225 145.078 69.274 145.008C69.2362 144.938 68.8098 145.149 68.5561 145.651C68.3078 146.154 68.3996 146.625 68.4752 146.614Z" fill="#263238"/>
<path d="M66.7588 145.424C66.7911 145.44 66.9693 145.154 67.0934 144.629C67.1582 144.37 67.2013 144.045 67.1959 143.688C67.1959 143.51 67.1798 143.321 67.1474 143.126C67.1312 143.034 67.1204 142.926 67.061 142.807C67.0178 142.688 66.8343 142.548 66.667 142.596C66.5105 142.623 66.3971 142.748 66.3432 142.861C66.2892 142.975 66.273 143.083 66.2568 143.175C66.2244 143.369 66.2136 143.559 66.2136 143.743C66.219 144.105 66.2892 144.429 66.3809 144.683C66.5645 145.197 66.7965 145.446 66.8235 145.43C66.8667 145.408 66.6994 145.121 66.5806 144.624C66.5213 144.375 66.4781 144.078 66.4835 143.743C66.4889 143.575 66.5051 143.402 66.5375 143.223C66.5645 143.034 66.6238 142.894 66.721 142.883C66.7588 142.877 66.7696 142.883 66.8019 142.937C66.8343 142.991 66.8451 143.077 66.8613 143.169C66.8937 143.348 66.9099 143.526 66.9207 143.694C66.9369 144.029 66.9207 144.337 66.8829 144.592C66.8235 145.1 66.7156 145.408 66.7588 145.424Z" fill="#263238"/>
<path d="M66.9101 145.37C66.9316 145.349 66.7211 145.073 66.2354 144.829C65.9925 144.711 65.6795 144.608 65.3178 144.565C65.1397 144.543 64.9454 144.543 64.7511 144.559C64.5568 144.586 64.2977 144.608 64.1304 144.894C64.0549 145.051 64.125 145.23 64.2114 145.322C64.2977 145.419 64.3841 145.468 64.4651 145.527C64.6378 145.635 64.8213 145.711 64.9994 145.76C65.3556 145.857 65.6957 145.835 65.9655 145.77C66.5107 145.635 66.7427 145.354 66.7158 145.338C66.6888 145.295 66.4243 145.5 65.9277 145.57C65.6849 145.603 65.3826 145.597 65.075 145.5C64.9238 145.451 64.7673 145.381 64.6216 145.289C64.4651 145.192 64.3571 145.067 64.4003 145.013C64.4327 144.932 64.6162 144.857 64.7781 144.846C64.9562 144.824 65.1289 144.824 65.2909 144.835C65.6201 144.857 65.9115 144.932 66.149 145.024C66.6294 145.203 66.8831 145.408 66.9101 145.37Z" fill="#263238"/>
<path d="M55.7703 157.991L61.0274 169.027L62.6736 178.955C62.7923 179.668 63.4886 180.133 64.1956 179.966C64.5896 179.874 64.9135 179.598 65.0646 179.22C66.0307 176.824 69.5444 167.983 69.1126 167.199C68.616 166.291 64.3359 155.19 64.3359 155.19L55.7703 157.991Z" fill="#EB763C"/>
<path opacity="0.6" d="M64.2009 179.971L68.7832 166.453L68.9937 166.923C69.1772 167.334 69.2096 167.794 69.0855 168.221C68.7508 169.373 67.7631 172.531 65.1022 179.209C64.9457 179.598 64.6057 179.885 64.2009 179.971Z" fill="white"/>
<g opacity="0.6">
<path opacity="0.6" d="M64.8807 163.885C64.6864 164.204 64.789 164.669 65.0966 164.874C65.4043 165.08 65.8792 164.982 66.0735 164.669C66.2732 164.355 66.1707 163.793 65.8415 163.625C65.5122 163.457 64.9617 163.598 64.8483 163.955" fill="white"/>
</g>
<path d="M64.5568 173.953C64.5082 174.012 63.9955 173.542 63.1913 173.526C62.3871 173.488 61.8419 173.92 61.7988 173.856C61.7772 173.834 61.8797 173.683 62.1226 173.526C62.3655 173.369 62.7541 173.239 63.2021 173.255C63.6447 173.272 64.0279 173.434 64.26 173.601C64.4867 173.774 64.5784 173.931 64.5568 173.953Z" fill="#263238"/>
<path d="M64.4327 175.802C64.4003 175.872 63.8821 175.672 63.229 175.764C62.576 175.845 62.128 176.175 62.0794 176.116C62.02 176.072 62.4518 175.597 63.1967 175.499C63.9361 175.397 64.4758 175.748 64.4327 175.802Z" fill="#263238"/>
<path d="M65.1719 171.374C65.1449 171.449 64.3461 171.136 63.3206 171.195C62.2951 171.238 61.534 171.628 61.4963 171.552C61.4531 171.498 62.2087 170.973 63.3098 170.925C64.4054 170.865 65.2151 171.32 65.1719 171.374Z" fill="#263238"/>
<path d="M63.8554 167.886C63.8554 167.967 63.1268 167.983 62.3118 168.319C61.4914 168.638 60.9516 169.13 60.8976 169.07C60.8437 169.027 61.3348 168.416 62.2146 168.07C63.089 167.713 63.8662 167.816 63.8554 167.886Z" fill="#263238"/>
<path d="M62.3925 164.604C62.3871 164.685 61.5991 164.593 60.7733 165.009C59.9367 165.409 59.5319 166.091 59.4617 166.048C59.4347 166.031 59.4941 165.837 59.683 165.572C59.8719 165.307 60.2066 164.988 60.6546 164.766C61.1025 164.544 61.5613 164.474 61.8851 164.485C62.209 164.501 62.3979 164.571 62.3925 164.604Z" fill="#263238"/>
<path d="M60.5139 164.382C60.4977 164.387 60.4059 164.252 60.3088 163.966C60.2116 163.684 60.1145 163.252 60.1469 162.711C60.1739 162.452 60.1793 162.127 60.4221 161.841C60.5409 161.695 60.7892 161.624 60.9835 161.711C61.1778 161.797 61.3019 161.96 61.3829 162.133C61.6905 162.846 61.3883 163.803 60.638 164.263C59.877 164.712 58.9541 164.577 58.3603 164.112C58.22 163.982 58.0851 163.814 58.0851 163.587C58.0851 163.36 58.2794 163.182 58.4467 163.138C58.7975 163.041 59.0944 163.138 59.3535 163.192C59.877 163.328 60.2602 163.544 60.5031 163.717C60.746 163.89 60.8593 164.014 60.8485 164.025C60.8215 164.074 60.3196 163.603 59.3103 163.376C59.062 163.333 58.7706 163.268 58.5223 163.349C58.4035 163.393 58.3226 163.479 58.3226 163.593C58.3226 163.701 58.4089 163.831 58.5223 163.928C59.0134 164.306 59.8608 164.425 60.4977 164.036C61.1346 163.657 61.3937 162.814 61.1562 162.235C61.0968 162.1 60.9997 161.976 60.8863 161.927C60.7784 161.878 60.6596 161.906 60.5733 161.992C60.3952 162.176 60.3574 162.479 60.325 162.727C60.2386 163.755 60.5679 164.366 60.5139 164.382Z" fill="#263238"/>
<path d="M73.4894 137.524L59.0731 127.802L63.8444 80.8725L50.189 72.886L37.7049 69.9877C37.7049 69.9877 32.4911 80.8562 30.1702 87.8154C25.237 102.615 21.7773 107.914 22.5653 118.642C22.8136 122.038 35.3301 130.527 43.2318 135.248C43.3398 136.329 43.4801 137.275 43.6528 138.06C46.3515 150.291 54.5933 166.55 54.5933 166.55L67.1206 160.716L63.0779 146.846L67.2879 149.307L73.4894 137.524ZM42.5032 107.26L44.1872 99.7384C43.8309 104.524 43.5071 109.509 43.275 114.295C42.4654 112.083 42.1847 109.628 42.5032 107.26Z" fill="#D6F5E1"/>
<path d="M54.5929 166.545C54.5875 166.545 54.5551 166.48 54.4957 166.345C54.431 166.199 54.3446 166.004 54.2367 165.755C54.01 165.22 53.6861 164.452 53.2705 163.468C52.4394 161.478 51.2465 158.591 49.8162 155.006C48.3913 151.421 46.6912 147.149 44.9856 142.337C44.5592 141.131 44.1436 139.893 43.7496 138.611C43.5769 137.962 43.3556 137.324 43.2422 136.637C43.2099 136.47 43.1721 136.297 43.1451 136.129L43.0857 135.615C43.0479 135.275 43.0102 134.929 42.9724 134.583C42.8267 133.198 42.7025 131.793 42.6162 130.36C42.573 129.646 42.5298 128.921 42.5028 128.191C42.4758 127.467 42.4434 126.726 42.4866 125.991C42.6971 120.091 43.1937 114.506 43.5985 109.417C44.0249 104.335 44.4027 99.7546 44.7265 95.9047C45.0396 92.0601 45.2555 88.9455 45.3796 86.788C45.4444 85.712 45.4822 84.8739 45.5091 84.3061C45.5253 84.0303 45.5361 83.8194 45.5415 83.6626C45.5523 83.5166 45.5577 83.4409 45.5631 83.4409C45.5685 83.4409 45.5685 83.5166 45.5685 83.6626C45.5685 83.8194 45.5631 84.0357 45.5577 84.3115C45.5523 84.8793 45.5307 85.7174 45.4768 86.7988C45.385 88.9563 45.1961 92.0763 44.91 95.9263C44.6024 99.7762 44.2408 104.356 43.8414 109.444C43.4473 114.533 42.9616 120.129 42.7511 126.007C42.7079 126.742 42.7403 127.467 42.7673 128.191C42.7943 128.916 42.832 129.635 42.8806 130.349C42.9724 131.776 43.0911 133.182 43.2315 134.561C43.2692 134.907 43.307 135.248 43.3448 135.588L43.4042 136.097C43.4312 136.264 43.4689 136.427 43.5013 136.594C43.6093 137.254 43.8252 137.897 43.9979 138.541C44.3865 139.817 44.7967 141.055 45.2231 142.256C46.9179 147.063 48.5964 151.34 49.9997 154.936C51.4193 158.51 52.5743 161.408 53.3785 163.425C53.7725 164.414 54.0856 165.193 54.3014 165.734C54.3986 165.988 54.4796 166.188 54.5389 166.334C54.5767 166.469 54.5983 166.54 54.5929 166.545Z" fill="#455A64"/>
<path d="M44.9589 81.8566C44.9481 81.8729 44.8347 81.7755 44.6296 81.5917C44.4407 81.3916 44.214 81.0618 44.0197 80.613C43.6311 79.71 43.4368 78.3581 43.4044 76.8874C43.3774 75.4112 43.4854 74.081 43.5825 73.1293C43.6797 72.1722 43.7606 71.5829 43.7984 71.5883C43.8362 71.5883 43.82 72.1885 43.7714 73.1456C43.7229 74.1026 43.6473 75.4274 43.6743 76.8874C43.7013 78.3419 43.8686 79.6613 44.1978 80.5481C44.3598 80.9915 44.5541 81.3213 44.7106 81.5322C44.8833 81.7214 44.9697 81.8404 44.9589 81.8566Z" fill="#455A64"/>
<path d="M39.5723 70.6853C39.5993 70.6798 39.7289 71.1773 39.6803 71.9992C39.6371 72.8103 39.3564 73.9566 38.6494 75.0057C37.9369 76.0547 36.9762 76.7306 36.2368 77.0712C35.4919 77.4173 34.9846 77.4768 34.9792 77.4497C34.9684 77.4065 35.4541 77.2767 36.1504 76.8982C36.8467 76.5251 37.748 75.8546 38.4281 74.8542C39.1082 73.8539 39.405 72.7671 39.4968 71.983C39.5831 71.1935 39.5238 70.6907 39.5723 70.6853Z" fill="#455A64"/>
<path d="M61.9661 97.9702C61.9715 97.9702 61.9715 98.0189 61.9607 98.1108C61.9499 98.2189 61.9391 98.3595 61.9283 98.5272C61.8905 98.9111 61.8366 99.4518 61.7664 100.128C61.6153 101.539 61.394 103.545 61.1241 106.016C60.5628 111.002 59.7856 117.858 58.9274 125.428C58.5982 129.219 58.9274 132.869 59.6399 136.081C59.9907 137.692 60.4549 139.19 60.946 140.574C61.4318 141.958 61.8852 143.251 62.2954 144.435C63.1104 146.781 63.7688 148.69 64.233 150.031C64.4489 150.68 64.6216 151.188 64.7458 151.556C64.7997 151.718 64.8375 151.848 64.8753 151.956C64.9023 152.048 64.9131 152.091 64.9077 152.097C64.9023 152.097 64.8807 152.054 64.8483 151.967C64.8105 151.864 64.7565 151.734 64.6972 151.578C64.5622 151.215 64.3733 150.707 64.1358 150.069C63.6501 148.733 62.9646 146.836 62.1172 144.5C61.6962 143.321 61.2321 142.034 60.7355 140.65C60.2336 139.265 59.7586 137.757 59.397 136.14C58.6683 132.906 58.3283 129.23 58.6629 125.407C59.5049 117.815 60.3415 110.964 60.9352 105.995C61.2375 103.529 61.4857 101.523 61.6585 100.117C61.7502 99.441 61.8204 98.9057 61.869 98.5218C61.8959 98.3541 61.9121 98.2135 61.9283 98.1054C61.9553 98.0189 61.9661 97.9702 61.9661 97.9702Z" fill="#455A64"/>
<path d="M37.7048 69.8958L39.9178 64.2344L44.9589 71.7721L38.2338 70.085" fill="#FFBE9D"/>
<path d="M90.5019 52.8792L84.5162 39.4314C83.7984 37.2685 82.4598 36.9332 81.3318 35.6787L66.3325 27.2056C55.4029 22.7176 49.4496 37.7659 49.4496 37.7659L39.513 60.471C27.8277 64.3534 36.1019 73.3402 36.1019 73.3402C36.1019 73.3402 32.9228 67.8032 36.0479 65.8079C39.3187 63.7153 42.9511 69.2253 46.4378 74.4595C50.556 80.6346 63.9307 84.6468 63.9307 84.6468C65.4959 82.9921 65.0587 77.2118 66.2839 74.108C66.6725 73.1239 75.9344 51.6301 75.9344 51.6301L79.5237 60.3466C79.5237 60.3466 84.1276 54.9393 86.3567 54.0796C88.5804 53.2252 90.5019 52.8792 90.5019 52.8792Z" fill="#EB763C"/>
<path d="M63.9254 62.4392C63.9362 62.4554 63.7742 62.5744 63.472 62.7582C63.1643 62.9421 62.7056 63.18 62.1065 63.4071C60.919 63.8667 59.1217 64.2182 57.1787 63.9208C55.2302 63.618 53.6272 62.7366 52.6341 61.9417C52.1321 61.547 51.7651 61.1793 51.5276 60.9144C51.2901 60.644 51.1768 60.4872 51.193 60.4764C51.2308 60.4385 51.7327 61.0549 52.7528 61.7957C53.7567 62.5365 55.3328 63.3692 57.2272 63.6612C59.1217 63.9532 60.8705 63.6396 62.0525 63.2341C63.2345 62.8231 63.8984 62.3905 63.9254 62.4392Z" fill="#263238"/>
<path d="M39.0648 41.113L48.3213 41.989L63.1316 26.308L54.4203 26.0106L38.9083 27.5462C38.9083 27.5408 40.2846 34.0133 39.0648 41.113Z" fill="#EB763C"/>
<path d="M51.9216 32.8507C51.9324 32.8561 51.8892 32.9534 51.8082 33.1373C51.7111 33.3482 51.5869 33.6131 51.4358 33.9376C51.0958 34.6621 50.6316 35.6571 50.0595 36.8737C48.9098 39.361 47.3824 42.8217 45.7254 46.6608C44.0684 50.5 42.5625 53.9768 41.4237 56.4696C40.857 57.7186 40.3874 58.7244 40.0474 59.4111C39.8855 59.7355 39.7559 59.9951 39.6534 60.2006C39.5616 60.379 39.5076 60.4709 39.5022 60.4709C39.4914 60.4655 39.5292 60.3682 39.6048 60.1789C39.6965 59.9681 39.8099 59.6977 39.9502 59.3678C40.2687 58.6325 40.7113 57.6267 41.2456 56.3939C42.3413 53.847 43.8309 50.3864 45.4717 46.5581C47.1287 42.7189 48.6832 39.2637 49.8814 36.798C50.4751 35.5651 50.9716 34.5702 51.3333 33.8943C51.5006 33.5753 51.6409 33.3211 51.7489 33.1157C51.8568 32.9372 51.9162 32.8453 51.9216 32.8507Z" fill="#263238"/>
<path d="M80.1768 37.409C80.2038 37.4523 79.6262 37.7551 78.8436 38.4202C78.4496 38.75 78.0232 39.1934 77.5914 39.7179C77.1758 40.2532 76.7656 40.8805 76.4148 41.5834C76.0802 42.2918 75.8427 43.0001 75.6808 43.6598C75.535 44.3249 75.4541 44.9305 75.4379 45.4442C75.4001 46.4716 75.5189 47.1096 75.4703 47.1205C75.4541 47.1259 75.4109 46.9691 75.3569 46.6771C75.3246 46.5311 75.2976 46.358 75.2868 46.1471C75.2706 45.9417 75.2382 45.7038 75.249 45.4388C75.2382 44.9143 75.303 44.2871 75.4379 43.6003C75.589 42.919 75.8265 42.189 76.1719 41.4591C76.5282 40.7345 76.9546 40.0964 77.3971 39.5557C77.8505 39.0258 78.2985 38.5878 78.7195 38.2688C78.9192 38.0958 79.1243 37.9768 79.297 37.8578C79.4697 37.7389 79.6262 37.6524 79.7558 37.5875C80.0202 37.4577 80.166 37.3928 80.1768 37.409Z" fill="#263238"/>
<path d="M82.7628 15.872L74.0785 32.137C72.659 34.7919 69.4368 35.895 66.6895 34.6676C63.667 33.3158 62.4202 29.6821 63.9638 26.7514C64.7842 25.1995 65.4643 23.9342 65.4643 23.9342C65.4643 23.9342 61.6861 21.4847 63.4565 17.3968C65.0325 13.7523 70.8185 3.45693 72.0437 1.28322L79.3625 4.56542C83.4753 6.69587 85.0135 11.8165 82.7628 15.872Z" fill="#FFBE9D"/>
<path d="M65.4863 23.8693C65.4863 23.8693 67.9583 25.2265 71.4504 24.7344C71.4504 24.7344 68.8921 27.0974 65.006 24.9183L65.4863 23.8693Z" fill="#EB996E"/>
<path d="M68.2762 10.8649C68.1305 11.1677 68.26 11.5408 68.5731 11.703C68.8861 11.8652 69.2586 11.7517 69.4043 11.4488C69.55 11.146 69.4205 10.7729 69.1074 10.6107C68.7944 10.4485 68.422 10.5621 68.2762 10.8649Z" fill="#263238"/>
<path d="M68.3084 10.3458C68.3462 10.4539 68.9291 10.3241 69.5552 10.6053C70.1813 10.8757 70.4944 11.4056 70.5969 11.3569C70.6455 11.3407 70.6347 11.1677 70.4998 10.9352C70.3702 10.7026 70.095 10.4107 69.7064 10.2376C69.3177 10.0646 68.9237 10.0646 68.6755 10.1241C68.411 10.189 68.2868 10.2971 68.3084 10.3458Z" fill="#263238"/>
<path d="M74.1107 13.7415C73.965 14.0443 74.0945 14.4174 74.4076 14.5797C74.7206 14.7419 75.093 14.6283 75.2388 14.3255C75.3845 14.0227 75.255 13.6496 74.9419 13.4874C74.6289 13.3252 74.2564 13.4387 74.1107 13.7415Z" fill="#263238"/>
<path d="M74.3859 13.2116C74.4237 13.3198 75.0066 13.19 75.6327 13.4712C76.2588 13.7415 76.5718 14.2714 76.6744 14.2228C76.7229 14.2011 76.7121 14.0335 76.5772 13.801C76.4477 13.5685 76.1724 13.2765 75.7838 13.1035C75.3952 12.9304 75.0012 12.9304 74.7529 12.9899C74.4884 13.0548 74.3643 13.1629 74.3859 13.2116Z" fill="#263238"/>
<path d="M70.0519 16.8291C70.0681 16.7966 69.7118 16.5533 69.1235 16.191C68.9724 16.1045 68.8375 16.0018 68.8591 15.8828C68.8752 15.753 69.0156 15.607 69.1775 15.4556C69.5013 15.1366 69.836 14.8013 70.1922 14.4499C71.6171 13.0115 72.729 11.8057 72.6696 11.7463C72.6102 11.6868 71.4066 12.8061 69.9817 14.2444C69.6363 14.6013 69.3016 14.9419 68.9832 15.2664C68.8429 15.4232 68.6486 15.58 68.6216 15.8558C68.6108 15.9964 68.6917 16.1315 68.7781 16.2072C68.8645 16.2829 68.9562 16.3262 69.0318 16.364C69.6417 16.6885 70.0357 16.8669 70.0519 16.8291Z" fill="#263238"/>
<path d="M71.6926 18.0835C71.5954 18.0295 71.2878 18.7108 70.4944 18.9325C69.701 19.1542 69.0155 18.754 68.9669 18.8514C68.9399 18.8892 69.0695 19.0568 69.3717 19.1974C69.6632 19.3434 70.1435 19.4408 70.6293 19.3056C71.1151 19.1704 71.4443 18.8405 71.59 18.5756C71.7412 18.3052 71.7412 18.0998 71.6926 18.0835Z" fill="#263238"/>
<path d="M75.3195 10.6918C75.3033 10.8919 75.9618 11.0865 76.658 11.5029C77.3597 11.903 77.8509 12.3843 78.0182 12.2761C78.0937 12.2221 78.0614 12.0166 77.8994 11.7462C77.7375 11.4759 77.4299 11.1514 77.0143 10.9027C76.5987 10.6594 76.1615 10.5458 75.8484 10.535C75.5192 10.5242 75.3249 10.5999 75.3195 10.6918Z" fill="#263238"/>
<path d="M69.3453 8.64247C69.3939 8.83172 69.885 8.88039 70.4086 9.10209C70.9375 9.30756 71.3207 9.62659 71.488 9.52385C71.5636 9.46978 71.5582 9.29675 71.4287 9.08046C71.2991 8.86417 71.0346 8.61003 70.673 8.46403C70.3114 8.31804 69.9498 8.30722 69.7015 8.37211C69.4532 8.43159 69.3291 8.55055 69.3453 8.64247Z" fill="#263238"/>
<path d="M80.0319 18.3106C80.1129 18.3106 83.1894 18.7324 81.8562 21.4739C80.5231 24.2154 78.0565 22.312 78.0889 22.2309C78.1267 22.1498 80.0319 18.3106 80.0319 18.3106Z" fill="#FFBE9D"/>
<path d="M79.433 21.5982C79.4492 21.5928 79.4654 21.6523 79.5247 21.7334C79.5841 21.8091 79.7082 21.8956 79.8755 21.9119C80.2156 21.9443 80.6798 21.6037 80.9334 21.117C81.063 20.8737 81.1223 20.6087 81.1331 20.3708C81.1493 20.1275 81.0845 19.9274 80.955 19.8301C80.8255 19.7273 80.6797 19.7652 80.6096 19.8247C80.534 19.8841 80.5286 19.949 80.5124 19.9436C80.5016 19.949 80.4747 19.8679 80.5502 19.7652C80.588 19.7165 80.6528 19.6679 80.7391 19.6462C80.8309 19.6246 80.9388 19.6462 81.036 19.7057C81.2411 19.8247 81.3328 20.1113 81.3274 20.3708C81.3328 20.6412 81.2681 20.9386 81.1223 21.2143C80.8363 21.7551 80.3019 22.139 79.854 22.0579C79.6381 22.0146 79.5031 21.8794 79.4546 21.7713C79.406 21.6685 79.4222 21.5982 79.433 21.5982Z" fill="#EB996E"/>
<path d="M81.6188 18.9054C81.241 18.6135 80.3342 18.6783 79.978 18.992C79.6218 19.3056 79.3789 19.7382 79.0227 20.0572C78.6664 20.3762 78.0997 20.5492 77.7219 20.2627C77.4628 20.0626 77.3765 19.6949 77.4251 19.3705C77.479 19.046 77.6463 18.754 77.8191 18.4729C78.5639 17.2508 79.4113 16.0829 80.0428 14.8013C80.6797 13.5198 81.1007 12.0761 80.9117 10.654C80.7228 9.23188 79.8323 7.84762 78.4829 7.37178C77.5924 7.05276 76.5993 7.15009 75.6871 6.88513C74.6076 6.57151 73.6955 5.73339 73.2907 4.67897C73.2367 4.54379 72.9344 4.06255 72.9344 4.06255C72.9668 3.99766 73.2853 3.44072 73.6091 3.33257C76.0109 2.52148 79.2709 3.45153 81.2626 5.02504C83.2542 6.59855 84.6467 9.12914 84.6737 11.6705C84.7007 14.212 83.1031 17.0129 81.6188 18.9054Z" fill="#263238"/>
<path d="M81.6456 18.6351C82.4066 17.3427 83.6372 16.4019 84.5764 15.2339C85.5155 14.0659 86.1632 12.4167 85.4939 11.0757C85.2672 10.6161 84.9002 10.2322 84.7059 9.75637C84.5116 9.28053 84.5116 8.75062 84.4414 8.23693C84.2148 6.65801 83.2162 5.21428 81.8291 4.43563C80.8684 3.90032 79.7619 3.67862 78.785 3.16493C77.2414 2.35384 76.1133 0.845221 74.4941 0.207165C73.9544 -0.00371739 73.3283 -0.106455 72.8155 0.1585C72.3028 0.423455 72.0275 1.16966 72.3999 1.61305C72.3352 1.09395 71.6605 0.812777 71.1855 1.02366C70.7105 1.23995 70.4677 1.80771 70.5001 2.32681C70.5324 2.8459 70.7915 3.32715 71.0884 3.75973C72.0707 5.17102 73.5766 6.20921 75.2443 6.62557L78.9685 6.33358L82.0234 8.59921L84.2849 12.2058L80.1829 17.5428L81.6456 18.6351Z" fill="#263238"/>
</svg>
