<svg width="41" height="41" viewBox="0 0 41 41" fill="none" xmlns="http://www.w3.org/2000/svg">
<path d="M39.0161 9.59448H1.98387C0.889931 9.59448 0 10.4844 0 11.5784V33.4009C0 34.4949 0.889931 35.3848 1.98387 35.3848H39.0161C40.1101 35.3848 41 34.4949 41 33.4009V11.5784C41 10.4844 40.1101 9.59448 39.0161 9.59448Z" fill="#EB763C"/>
<path d="M22.4837 32.0784H18.516V35.3849H22.4837V32.0784Z" fill="#E3001E"/>
<path d="M38.3729 30.0945V32.0784C38.3729 32.4436 38.0768 32.7397 37.7116 32.7397H3.32448C2.95929 32.7397 2.66319 32.4436 2.66319 32.0784V30.0945L6.61283 28.1107L22.4838 28.7719L35.7096 28.1107L38.3729 30.0945Z" fill="#C1C9D7"/>
<path d="M3.59098 31.0076C9.02505 28.7642 15.1705 28.9008 20.518 31.4171V7.61062C14.9942 5.01134 8.61902 4.95141 3.05592 7.43075C2.81653 7.53747 2.66319 7.77975 2.66319 8.04187V30.403C2.66319 30.8807 3.14949 31.1898 3.59098 31.0076Z" fill="#DADFE7"/>
<path d="M20.5182 31.4171C25.8657 28.9007 32.0112 28.7642 37.4452 31.0076C37.8867 31.1898 38.373 30.8807 38.373 30.403V8.04187C38.373 7.77975 38.2197 7.53747 37.9803 7.43075C32.4172 4.95141 26.0419 5.01134 20.5182 7.61062V31.4171Z" fill="#E8EBF0"/>
<path d="M23.1633 27.0984C22.8817 27.0984 22.6208 26.9175 22.5323 26.635C22.4232 26.2866 22.6169 25.9153 22.965 25.8059C23.634 25.5957 24.3224 25.4161 25.0115 25.2718C25.368 25.1969 25.7193 25.4251 25.7942 25.7833C25.8691 26.1407 25.6406 26.4911 25.2827 26.566C24.6357 26.7017 23.9892 26.8706 23.3615 27.0678C23.2956 27.0884 23.2285 27.0984 23.1633 27.0984Z" fill="#CAC9CF"/>
<path d="M35.7277 27.0984C35.6625 27.0984 35.5953 27.0884 35.5295 27.0677C33.0342 26.2841 30.4477 25.9905 27.8445 26.1978C27.4751 26.2243 27.1619 25.9547 27.1329 25.5908C27.1045 25.2266 27.3757 24.9082 27.74 24.8791C30.5181 24.6608 33.2692 24.9715 35.926 25.8059C36.2741 25.9153 36.4678 26.2866 36.3586 26.635C36.2701 26.9176 36.0092 27.0984 35.7277 27.0984Z" fill="#CAC9CF"/>
<path d="M35.728 24.4454C35.6628 24.4454 35.5956 24.4354 35.5298 24.4148C31.5491 23.1645 27.3424 23.1645 23.3618 24.4148C23.0118 24.5242 22.6411 24.3302 22.5326 23.9821C22.4235 23.6337 22.6172 23.2624 22.9653 23.1529C27.2055 21.8213 31.686 21.8213 35.9263 23.1529C36.2744 23.2624 36.4682 23.6337 36.359 23.9821C36.2704 24.2646 36.0095 24.4454 35.728 24.4454Z" fill="#CAC9CF"/>
<path d="M23.1633 21.8081C22.8817 21.8081 22.6208 21.6272 22.5323 21.3448C22.4232 20.9963 22.6169 20.625 22.965 20.5156C25.3989 19.7516 27.9247 19.4264 30.4691 19.546C30.8333 19.5634 31.1155 19.8731 31.098 20.2379C31.0812 20.6034 30.7764 20.8824 30.4057 20.8672C28.0182 20.7546 25.6463 21.06 23.3614 21.7775C23.2956 21.7981 23.2285 21.8081 23.1633 21.8081Z" fill="#CAC9CF"/>
<path d="M35.7278 21.808C35.6626 21.808 35.5954 21.798 35.5296 21.7773C34.6939 21.5148 33.8318 21.3042 32.9671 21.1519C32.6073 21.0883 32.3671 20.7454 32.4311 20.3856C32.4944 20.0262 32.8379 19.7857 33.197 19.8493C34.118 20.0118 35.0356 20.2358 35.9262 20.5155C36.2743 20.6249 36.468 20.9963 36.3588 21.3447C36.2702 21.6272 36.0093 21.808 35.7278 21.808Z" fill="#CAC9CF"/>
<path d="M35.728 19.1551C35.6628 19.1551 35.5956 19.1451 35.5298 19.1244C31.5491 17.8742 27.3424 17.8742 23.3618 19.1244C23.0118 19.2332 22.6411 19.0395 22.5326 18.6918C22.4235 18.3434 22.6172 17.9721 22.9653 17.8626C27.2055 16.531 31.686 16.531 35.9263 17.8626C36.2744 17.9721 36.4682 18.3434 36.359 18.6918C36.2704 18.9743 36.0095 19.1551 35.728 19.1551Z" fill="#CAC9CF"/>
<path d="M23.1633 16.51C22.8817 16.51 22.6208 16.3291 22.5323 16.0467C22.4232 15.6983 22.6169 15.3269 22.965 15.2175C24.2953 14.7996 25.6721 14.5098 27.0586 14.356C27.4267 14.3118 27.749 14.5779 27.789 14.9401C27.829 15.3031 27.5675 15.6301 27.2046 15.6702C25.9033 15.8148 24.6098 16.087 23.3615 16.4793C23.2956 16.4999 23.2285 16.51 23.1633 16.51Z" fill="#CAC9CF"/>
<path d="M35.7277 16.51C35.6625 16.51 35.5953 16.5 35.5295 16.4793C33.6625 15.8926 31.7239 15.5794 29.7664 15.5487C29.4009 15.5429 29.1097 15.2423 29.1155 14.8771C29.1213 14.5122 29.4403 14.2048 29.7871 14.2261C31.8717 14.259 33.9376 14.5927 35.926 15.2174C36.2741 15.3269 36.4679 15.6982 36.3587 16.0466C36.2695 16.3291 36.0093 16.51 35.7277 16.51Z" fill="#CAC9CF"/>
<path d="M23.1633 13.8725C22.8817 13.8725 22.6208 13.6916 22.5323 13.4092C22.4232 13.0608 22.6169 12.6895 22.965 12.58C25.8465 11.675 28.8287 11.3843 31.833 11.7185C32.1959 11.7585 32.4575 12.0856 32.4174 12.4486C32.3774 12.8112 32.0571 13.0799 31.687 13.0327C28.8687 12.7201 26.0667 12.9917 23.3614 13.8418C23.2956 13.8625 23.2285 13.8725 23.1633 13.8725Z" fill="#CAC9CF"/>
<path d="M35.7279 13.8725C35.6626 13.8725 35.5954 13.8625 35.5296 13.8419C35.1099 13.7098 34.6791 13.59 34.2484 13.4851C33.8939 13.3986 33.6762 13.0408 33.7628 12.6859C33.8493 12.3311 34.2045 12.1141 34.5623 12.2C35.0201 12.3117 35.4786 12.4395 35.9262 12.5801C36.2742 12.6895 36.468 13.0608 36.3588 13.4092C36.2703 13.6918 36.0094 13.8725 35.7279 13.8725Z" fill="#CAC9CF"/>
<path d="M23.1633 11.2197C22.8818 11.2197 22.6208 11.0386 22.5324 10.7561C22.4232 10.4073 22.6169 10.0364 22.9657 9.92725C23.4203 9.7845 23.8788 9.65695 24.3289 9.54751C24.6816 9.46063 25.0412 9.67894 25.1278 10.0338C25.2143 10.3887 24.996 10.7464 24.6415 10.8326C24.2191 10.9353 23.7884 11.0551 23.3609 11.1891C23.295 11.2097 23.2285 11.2197 23.1633 11.2197Z" fill="#CAC9CF"/>
<path d="M35.7276 11.2197C35.6623 11.2197 35.5951 11.2097 35.5293 11.1891C32.8235 10.3389 30.0227 10.0677 27.2038 10.3799C26.8383 10.4245 26.5134 10.158 26.4734 9.79581C26.4334 9.43285 26.6949 9.10576 27.0578 9.06575C30.0607 8.73155 33.0436 9.02219 35.9258 9.92725C36.2739 10.0367 36.4676 10.408 36.3584 10.7564C36.27 11.0389 36.0091 11.2197 35.7276 11.2197Z" fill="#CAC9CF"/>
<path d="M5.30854 27.0984C5.02699 27.0984 4.76611 26.9175 4.67758 26.635C4.56847 26.2866 4.76215 25.9153 5.11023 25.8059C5.77929 25.5957 6.4677 25.4161 7.15676 25.2718C7.51386 25.1969 7.86459 25.4251 7.93948 25.7833C8.01437 26.1407 7.78582 26.4911 7.42797 26.566C6.7809 26.7017 6.13449 26.8706 5.50676 27.0678C5.44088 27.0884 5.37376 27.0984 5.30854 27.0984Z" fill="#B4B6BC"/>
<path d="M17.8729 27.0984C17.8077 27.0984 17.7405 27.0884 17.6747 27.0677C15.18 26.2841 12.5929 25.9905 9.98978 26.1978C9.61524 26.2243 9.30716 25.9547 9.27815 25.5908C9.24971 25.2266 9.52101 24.9082 9.88521 24.8791C12.6634 24.6608 15.4138 24.9715 18.0712 25.8059C18.4193 25.9153 18.6131 26.2866 18.5039 26.635C18.4154 26.9176 18.1545 27.0984 17.8729 27.0984Z" fill="#B4B6BC"/>
<path d="M17.8729 24.4454C17.8077 24.4454 17.7405 24.4354 17.6747 24.4148C13.6941 23.1645 9.48737 23.1645 5.50673 24.4148C5.15542 24.5242 4.78601 24.3302 4.67755 23.9821C4.56844 23.6337 4.76212 23.2624 5.1102 23.1529C9.35048 21.8213 13.831 21.8213 18.0712 23.1529C18.4193 23.2624 18.6131 23.6337 18.5039 23.9821C18.4154 24.2646 18.1545 24.4454 17.8729 24.4454Z" fill="#B4B6BC"/>
<path d="M5.30854 21.8081C5.02699 21.8081 4.76611 21.6272 4.67758 21.3448C4.56847 20.9963 4.76215 20.625 5.11023 20.5156C7.54419 19.7516 10.0718 19.4264 12.6143 19.546C12.9785 19.5634 13.2607 19.8731 13.2433 20.2379C13.2258 20.6034 12.9178 20.8824 12.551 20.8672C10.1628 20.7546 7.79152 21.06 5.50668 21.7775C5.44088 21.7981 5.37376 21.8081 5.30854 21.8081Z" fill="#B4B6BC"/>
<path d="M17.8726 21.808C17.8074 21.808 17.7402 21.798 17.6744 21.7773C16.8388 21.5148 15.9766 21.3042 15.1119 21.1519C14.7522 21.0883 14.512 20.7454 14.5759 20.3856C14.6386 20.0262 14.9835 19.7857 15.3419 19.8493C16.2628 20.0118 17.1804 20.2358 18.071 20.5155C18.4191 20.6249 18.6129 20.9963 18.5037 21.3447C18.4151 21.6272 18.1542 21.808 17.8726 21.808Z" fill="#B4B6BC"/>
<path d="M5.30854 19.1551C5.02699 19.1551 4.76611 18.9742 4.67758 18.6918C4.56847 18.3433 4.76215 17.972 5.11023 17.8626C8.86942 16.6824 12.8804 16.551 16.7067 17.4828C17.0619 17.5694 17.2795 17.9271 17.193 18.282C17.1065 18.6365 16.7468 18.8525 16.3942 18.768C12.801 17.8919 9.03598 18.0162 5.50676 19.1245C5.44088 19.1451 5.37376 19.1551 5.30854 19.1551Z" fill="#B4B6BC"/>
<path d="M5.30854 16.51C5.02699 16.51 4.76611 16.3291 4.67758 16.0467C4.56847 15.6983 4.76215 15.3269 5.11023 15.2175C6.44058 14.7996 7.81739 14.5098 9.20387 14.356C9.56873 14.3118 9.89425 14.5779 9.93426 14.9401C9.97427 15.3031 9.71273 15.6301 9.34985 15.6702C8.04859 15.8148 6.75503 16.087 5.50676 16.4793C5.44088 16.4999 5.37376 16.51 5.30854 16.51Z" fill="#B4B6BC"/>
<path d="M16.5513 16.1415C16.4996 16.1415 16.4466 16.1354 16.3944 16.1228C14.9285 15.7657 13.4199 15.5723 11.9119 15.5487C11.5464 15.5429 11.2552 15.2423 11.261 14.8771C11.2667 14.5122 11.5522 14.2048 11.9326 14.2261C13.5393 14.2517 15.1454 14.4573 16.7069 14.8376C17.0621 14.9242 17.2798 15.2819 17.1932 15.6368C17.1195 15.9391 16.8489 16.1415 16.5513 16.1415Z" fill="#B4B6BC"/>
<path d="M5.30854 13.8725C5.02699 13.8725 4.76611 13.6916 4.67758 13.4092C4.56847 13.0608 4.76215 12.6895 5.11023 12.58C7.99238 11.675 10.9746 11.3843 13.9782 11.7185C14.3412 11.7585 14.6027 12.0856 14.5626 12.4486C14.5226 12.8112 14.1997 13.0799 13.8322 13.0327C11.014 12.7201 8.21193 12.9917 5.50668 13.8418C5.44088 13.8625 5.37376 13.8725 5.30854 13.8725Z" fill="#B4B6BC"/>
<path d="M5.30834 11.2197C5.0268 11.2197 4.76592 11.0386 4.67739 10.7561C4.56828 10.4073 4.76195 10.0364 5.1107 9.92725C5.56534 9.7845 6.02386 9.65695 6.47395 9.54751C6.82592 9.46063 7.18624 9.67894 7.27279 10.0338C7.35934 10.3887 7.14103 10.7464 6.78649 10.8326C6.36418 10.9353 5.93343 11.0551 5.5059 11.1891C5.44002 11.2097 5.37356 11.2197 5.30834 11.2197Z" fill="#B4B6BC"/>
<path d="M16.551 10.8509C16.4994 10.8509 16.4464 10.8448 16.3941 10.8322C14.0829 10.2693 11.7128 10.1179 9.34917 10.3798C8.98621 10.4243 8.65879 10.1586 8.61878 9.79569C8.57877 9.43272 8.84031 9.10563 9.20319 9.06562C11.7198 8.78532 14.2455 8.94808 16.7066 9.54704C17.0618 9.63359 17.2794 9.99134 17.1929 10.3462C17.1192 10.6484 16.8487 10.8509 16.551 10.8509Z" fill="#B4B6BC"/>
<path d="M16.5503 17.8602C16.5504 18.1242 16.8447 18.2817 17.0644 18.1352L18.5342 17.1554L20.004 18.1352C20.2237 18.2817 20.5181 18.1243 20.5181 17.8602V7.66554C20.5181 7.40433 20.3657 7.1632 20.127 7.05707C19.0973 6.59912 18.0391 6.23186 16.9642 5.94792C16.7545 5.89253 16.5484 6.05472 16.5485 6.27162L16.5503 17.8602Z" fill="#27A857"/>
</svg>
