<svg width="41" height="41" viewBox="0 0 41 41" fill="none" xmlns="http://www.w3.org/2000/svg">
<g clip-path="url(#clip0_1_1165)">
<path d="M29.7583 18.1854V18.6494C29.7583 19.218 29.85 19.7829 30.0297 20.3223L31.0809 23.4757H33.0647V16.2014H31.7421C30.6465 16.2015 29.7583 17.0896 29.7583 18.1854Z" fill="#5A4146"/>
<path d="M38.8127 19.5592L37.6936 23.4759L32.4033 18.8469C31.6728 18.8469 31.0807 18.2547 31.0807 17.5243C31.0807 16.4287 31.9689 15.5404 33.0646 15.5404H37.6936C38.424 15.5404 39.0161 16.1326 39.0161 16.863V18.106C39.0162 18.5974 38.9477 19.0865 38.8127 19.5592Z" fill="#694B4B"/>
<path d="M36.3704 25.4601H32.4026V28.3869H36.3704V25.4601Z" fill="#E6AF78"/>
<path d="M32.4032 26.6743C33.0165 26.9235 33.6853 27.0638 34.387 27.0638C35.0888 27.0638 35.7576 26.9235 36.3709 26.6743V25.4596H32.4032V26.6743Z" fill="#D29B6E"/>
<path d="M39.5612 27.9754L36.3709 27.0639L34.3872 28.3803L32.4033 27.0638L29.2132 27.9754C28.3615 28.2187 27.7744 28.9972 27.7744 29.8829V34.7177C27.7744 35.0829 28.0704 35.379 28.4356 35.379H40.3388C40.7041 35.379 41.0001 35.0829 41.0001 34.7177V29.8829C41.0001 28.9971 40.4129 28.2187 39.5612 27.9754Z" fill="#EB763C"/>
<path d="M35.0482 35.3789H33.7256L34.0563 28.3864H34.7176L35.0482 35.3789Z" fill="#BFC8D0"/>
<path d="M34.387 26.121C32.1957 26.121 30.4193 24.3445 30.4193 22.1533V21.3785C30.4193 21.0278 30.5586 20.6914 30.8066 20.4433L32.0058 19.2441C32.2597 18.9902 32.6069 18.8442 32.9658 18.8555C35.0797 18.9222 36.9509 19.375 37.9737 20.374C38.2241 20.6186 38.3548 20.9607 38.3548 21.3106V22.1533C38.3548 24.3446 36.5783 26.121 34.387 26.121Z" fill="#F0C087"/>
<path d="M32.4031 21.5425C32.4031 20.7797 33.0438 20.1733 33.8051 20.2219C35.14 20.3071 37.121 20.5302 38.3364 21.1147C38.2967 20.8357 38.1769 20.5724 37.9737 20.3739C36.9509 19.375 35.0797 18.9221 32.9658 18.8554L32.9658 18.8555V18.8554C32.6069 18.8441 32.2596 18.9902 32.0058 19.244L30.8067 20.4431C30.5586 20.6911 30.4193 21.0275 30.4193 21.3784V22.1531C30.4193 23.9626 31.6317 25.4861 33.2877 25.9632C32.7365 25.2831 32.4032 24.4199 32.4032 23.4757L32.4031 21.5425Z" fill="#E6AF78"/>
<path d="M38.3551 31.8534C38.3551 31.3272 38.5641 30.8226 38.9361 30.4506L40.6383 28.7484C40.8658 29.0735 41.0002 29.4651 41.0002 29.883V34.7178C41.0002 35.083 40.7042 35.3791 40.3389 35.3791H38.3551V31.8534Z" fill="#E75D18"/>
<path d="M34.7176 29.709H34.0563C33.8737 29.709 33.7256 29.5609 33.7256 29.3783V28.3864H35.0482V29.3783C35.0482 29.5609 34.9002 29.709 34.7176 29.709Z" fill="white"/>
<path d="M34.3868 28.3804L33.2659 29.2365C33.0729 29.384 32.7937 29.3249 32.677 29.1117L31.6716 27.2755L32.0763 26.6582C32.1661 26.5213 32.3574 26.498 32.4774 26.6093L34.3868 28.3804Z" fill="#E75D18"/>
<path d="M34.3865 28.3804L35.5074 29.2366C35.7004 29.3841 35.9796 29.325 36.0963 29.1119L37.1017 27.2757L36.697 26.6583C36.6072 26.5214 36.4159 26.4981 36.2959 26.6094L34.3865 28.3804Z" fill="#E75D18"/>
<path d="M11.8375 25.8448C11.2724 24.3475 10.8242 21.7735 10.7273 20.4334C10.5432 17.8832 8.62137 15.8044 6.02347 15.8044C3.42558 15.8044 1.50378 17.8833 1.3196 20.4334C1.22279 21.7734 0.774593 24.3475 0.209482 25.8448C0.0849604 26.1748 0.228701 26.5388 0.553738 26.6861C1.15929 26.9606 2.45039 27.4982 4.00751 27.7076H8.03936C9.58919 27.4977 10.8893 26.9598 11.4931 26.6861C11.8182 26.5388 11.962 26.1748 11.8375 25.8448Z" fill="#5A4146"/>
<path d="M11.4928 26.6862C11.8178 26.5389 11.9616 26.1749 11.837 25.8448C11.2719 24.3475 10.8237 21.7736 10.7269 20.4335C10.5428 17.8833 8.62096 15.8045 6.02314 15.8045C6.01658 15.8045 6.01009 15.8045 6.00352 15.8046C4.01014 15.8127 3.30569 18.5312 5.02169 19.5456C5.12475 19.6065 5.19081 19.6358 5.19081 19.6358L6.6938 27.7077H8.03903C9.58886 27.4977 10.889 26.9598 11.4928 26.6862Z" fill="#694B4B"/>
<path d="M10.8065 29.0354L8.66654 27.9655C8.21842 27.7414 7.93534 27.2834 7.93542 26.7824L7.93558 24.7985H3.96771V26.7825C3.96771 27.2834 3.68471 27.7413 3.2366 27.9654L1.09659 29.0354C0.424494 29.3714 0 30.0583 0 30.8097V34.7177C0 35.0828 0.296049 35.3789 0.661285 35.3789H11.2419C11.6072 35.3789 11.9032 35.0828 11.9032 34.7177V30.8098C11.9032 30.0583 11.4786 29.3714 10.8065 29.0354Z" fill="#E6AF78"/>
<path d="M5.95156 27.4435C6.66362 27.4435 7.34564 27.2967 7.97089 27.0354C7.95448 26.952 7.93534 26.8692 7.93534 26.7823L7.9355 24.7983H3.96763V26.7824C3.96763 26.8697 3.94849 26.953 3.93192 27.0367C4.55757 27.2966 5.23927 27.4435 5.95156 27.4435Z" fill="#D29B6E"/>
<path d="M10.8065 29.0354L9.28202 28.2731C8.57509 29.3647 7.34901 30.0887 5.95165 30.0887C4.55428 30.0887 3.32813 29.3647 2.6212 28.273L1.09667 29.0354C0.424574 29.3714 0 30.0583 0 30.8096V34.7176C0 35.0829 0.296049 35.3789 0.661285 35.3789H11.2419C11.6072 35.3789 11.9032 35.0829 11.9032 34.7176V30.8097C11.9032 30.0583 11.4786 29.3714 10.8065 29.0354Z" fill="#EB763C"/>
<path d="M5.95153 26.1209C3.93421 26.1209 2.26858 24.6155 2.01674 22.6668C1.98022 22.3844 2.11595 22.1076 2.37012 21.9794C2.67458 21.8258 3.11701 21.5668 3.54062 21.1888C4.01236 20.768 4.28911 20.3241 4.44543 19.9982C4.58004 19.7176 4.88946 19.5589 5.19103 19.6359C7.51938 20.2298 9.10453 21.4411 9.67965 21.9357C9.83404 22.0684 9.92301 22.2642 9.90715 22.4673C9.74692 24.5117 8.03717 26.1209 5.95153 26.1209Z" fill="#F0C087"/>
<path d="M9.67984 21.9355C9.1048 21.441 7.51957 20.2296 5.19122 19.6358C4.88965 19.5588 4.58023 19.7175 4.44561 19.9981C4.32726 20.2449 4.13163 20.5593 3.84134 20.8803C3.84126 20.8811 3.84102 20.8817 3.84094 20.8825C3.75086 20.9846 3.65492 21.0869 3.54089 21.1888C3.11728 21.5669 2.67485 21.8257 2.37039 21.9793C2.11622 22.1075 1.98057 22.3845 2.01701 22.6668C2.24323 24.4169 3.61272 25.81 5.35026 26.0757C4.55852 25.5371 3.96795 24.7963 3.96795 23.4758V22.5328C4.11817 22.4219 4.26944 22.3113 4.42143 22.1757C4.78899 21.8477 5.10986 21.4684 5.36715 21.06C7.14833 21.6158 8.35591 22.5416 8.81371 22.9352C8.93904 23.0451 9.25006 23.3318 9.61394 23.6732C9.77049 23.2964 9.87403 22.8921 9.90726 22.4673C9.9232 22.2642 9.83423 22.0684 9.67984 21.9355Z" fill="#E6AF78"/>
<path d="M0.403113 29.6176C0.148385 29.9557 0 30.3704 0 30.8097V34.7176C0 35.0829 0.296049 35.3789 0.661285 35.3789H2.64514V32.0469C2.64514 31.6451 2.46248 31.2651 2.14874 31.0141L0.403113 29.6176Z" fill="#E75D18"/>
<path d="M30.0009 28.1328L24.4679 26.1208L20.5002 27.4434L16.5325 26.1209L10.9995 28.1329C9.95416 28.513 9.25829 29.5065 9.25829 30.6188V34.7177C9.25829 35.0828 9.55433 35.3789 9.91957 35.3789H31.0808C31.4461 35.3789 31.7421 35.0828 31.7421 34.7177V30.6188C31.7421 29.5064 31.0463 28.513 30.0009 28.1328Z" fill="#27A857"/>
<path d="M19.8074 28.7661L19.1776 35.3788H21.8227L21.1929 28.7661H19.8074Z" fill="#707487"/>
<path d="M21.1945 29.6747H19.8059C19.5502 29.6747 19.343 29.4674 19.343 29.2117V27.4435H21.6574V29.2117C21.6574 29.4674 21.4502 29.6747 21.1945 29.6747Z" fill="#5B5D6E"/>
<path d="M31.0303 28.8165C31.4768 29.2958 31.7421 29.9341 31.7421 30.6188V34.7176C31.7421 35.0829 31.446 35.3789 31.0808 35.3789H27.7744V33.1681C27.7744 32.4666 28.053 31.7938 28.5491 31.2977L31.0303 28.8165Z" fill="#218D49"/>
<path d="M27.7741 12.4833V6.94351C27.7741 6.21304 27.1819 5.62094 26.4515 5.62094H18.516C15.5943 5.62094 13.2256 7.98949 13.2256 10.9113V12.4833C13.2256 13.1941 13.3402 13.9002 13.565 14.5745L13.7851 15.2349C13.8526 15.4372 13.8869 15.649 13.8869 15.8622V16.2016H27.1127V15.8622C27.1127 15.649 27.1471 15.4372 27.2145 15.2349L27.4346 14.5745C27.6595 13.9001 27.7741 13.194 27.7741 12.4833Z" fill="#5A4146"/>
<path d="M16.5321 8.3074C16.5321 9.79109 17.7348 10.9939 19.2185 10.9939H19.5905L19.77 16.2015H27.1126V15.8621C27.1126 15.6489 27.147 15.4371 27.2144 15.2348L27.4346 14.5744C27.6593 13.9001 27.7739 13.194 27.7739 12.4832V6.94351C27.7739 6.21304 27.1817 5.62094 26.4514 5.62094H19.2185C17.7348 5.62094 16.5321 6.82371 16.5321 8.3074Z" fill="#694B4B"/>
<path d="M24.4677 21.4922H16.5319V27.4436H24.4677V21.4922Z" fill="#E6AF78"/>
<path d="M16.5321 23.7279C17.7003 24.4047 19.0527 24.7982 20.4998 24.7982C21.9469 24.7982 23.2994 24.4047 24.4675 23.7279V21.4918H16.532L16.5321 23.7279Z" fill="#D29B6E"/>
<path d="M20.4999 27.4434L18.3908 29.5525C18.1073 29.836 17.6388 29.804 17.3965 29.4847L15.2096 26.6032L15.7816 25.3977C15.9504 25.042 16.3907 24.9117 16.7259 25.1183L20.4999 27.4434Z" fill="#218D49"/>
<path d="M20.5 27.4434L22.6091 29.5525C22.8926 29.836 23.3611 29.804 23.6034 29.4847L25.7903 26.6032L25.2183 25.3977C25.0495 25.042 24.6092 24.9117 24.274 25.1183L20.5 27.4434Z" fill="#218D49"/>
<path d="M20.5 23.4758C16.8478 23.4758 13.8871 20.5151 13.8871 16.8629V16.0881C13.8871 15.7374 14.0264 15.401 14.2744 15.1529L14.8222 14.6051C15.0702 14.3571 15.2096 14.0206 15.2096 13.6698V12.0846C15.2096 11.7784 15.4152 11.5124 15.7132 11.442C17.2772 11.0726 22.1441 10.1976 25.4562 12.6335C25.6713 12.7917 25.7902 13.0515 25.7902 13.3185V13.6698C25.7902 14.0206 25.9296 14.357 26.1776 14.6051L26.7254 15.1529C26.9734 15.4009 27.1127 15.7373 27.1127 16.0881V16.8629C27.1129 20.5151 24.1522 23.4758 20.5 23.4758Z" fill="#F0C087"/>
<path d="M25.4563 12.6336C23.1268 10.9203 20.0325 10.8462 17.8549 11.0807C16.9363 11.1796 16.1773 11.3325 15.7133 11.442C15.4154 11.5124 15.2097 11.7784 15.2097 12.0847V13.6698C15.2097 14.0206 15.0704 14.357 14.8223 14.6051L14.2745 15.1529C14.0264 15.401 13.8871 15.7374 13.8871 16.0882V16.8629C13.8871 20.2441 16.4264 23.0277 19.7009 23.4229C18.5599 22.2346 17.8548 20.6243 17.8548 18.8468V14.0132C17.8548 13.343 18.3531 12.7829 19.018 12.6996C20.605 12.5006 23.5117 12.3809 25.7902 13.67V13.3186C25.7904 13.0516 25.6712 12.7917 25.4563 12.6336Z" fill="#E6AF78"/>
<path d="M9.9701 28.8165C9.52358 29.2958 9.25829 29.9341 9.25829 30.6188V34.7176C9.25829 35.0829 9.55433 35.3789 9.91957 35.3789H13.226V33.1681C13.226 32.4666 12.9473 31.7938 12.4512 31.2977L9.9701 28.8165Z" fill="#218D49"/>
</g>
<defs>
<clipPath id="clip0_1_1165">
<rect width="41" height="41" fill="white"/>
</clipPath>
</defs>
</svg>
